<svg width="375" height="571" viewBox="0 0 375 571" fill="none" xmlns="http://www.w3.org/2000/svg">
<path d="M-146.283 146.464C-105.255 70.9199 245.746 -12.1358 300.543 1.47615C355.34 15.0881 336.495 46.7424 320.222 60.868C329.708 58.5293 355.832 51.5867 384.441 42.5261C413.05 33.4655 396.79 61.7202 385.084 76.9802C405.335 60.7808 447.457 28.7847 453.944 30.3959C461.452 32.2611 393.31 120.379 347.529 148.854C370.217 137.154 405.001 121.734 418.546 125.098C434.426 129.043 365.557 203.387 329.137 240.066C341.124 232.837 366.685 219.876 373.034 225.862C380.971 233.345 360.607 244.821 352.391 286.261C344.175 327.7 -137.725 584.006 -181.181 570.149C-224.638 556.292 -197.848 277.569 -146.283 146.464Z" fill="#EBF0FF"/>
</svg>
