<svg width="1223" height="527" viewBox="0 0 1223 527" fill="none" xmlns="http://www.w3.org/2000/svg">
<path d="M7.96909 68.2411C72.1683 -2.73684 846.969 34.7418 933.469 13.7418C1137.46 -35.7831 1026.93 63.6386 997.469 74.7413C1016.13 74.6159 1081.7 77.2802 1137.46 74.7413C1193.23 72.2024 1105.87 128.766 1085.97 142.242C1122.97 129.91 1190.83 100.371 1204.4 103.742C1219.49 107.49 1150.93 197.463 1074.91 224.052C1117.83 212.823 1177.89 194.658 1204.4 201.242C1237.62 209.493 1121.62 286.378 1056.97 316.678C1079.47 311.919 1204.08 318.196 1218.47 326.242C1236.46 336.299 1183.19 411.703 1176.97 454.242C1170.75 496.78 181.54 532.183 86.4692 526.241C14.4694 521.741 -0.0304093 329.241 7.96927 241.241C15.9689 153.241 -13.4414 106.574 7.96909 68.2411Z" fill="#EBF0FF"/>
</svg>
