<svg width="800" height="556" viewBox="0 0 800 556" fill="none" xmlns="http://www.w3.org/2000/svg">
<path d="M-74.4777 102.731C-19.8756 26.883 521.507 -16.1788 609.53 5.68663C697.552 27.5521 672.07 59.1154 648.326 72.1639C662.944 70.8989 703.137 66.8754 746.962 60.9013C790.786 54.9272 768.925 83.1749 752.516 98.0455C782.247 83.2908 844.313 54.4286 854.732 57.0168C866.793 60.0129 771.183 145.811 702.896 170.403C737.055 160.809 789.757 148.809 811.515 154.214C837.024 160.55 738.453 231.437 685.979 266.088C703.888 259.892 742.402 249.321 753.182 256.597C766.658 265.692 736.127 275.351 728.661 318.841C721.196 362.331 -3.3261 574.487 -73.536 553.853C-143.746 533.219 -138.335 236.951 -74.4777 102.731Z" fill="#EBF0FF"/>
</svg>
