<svg width="32" height="32" viewBox="0 0 32 32" xmlns="http://www.w3.org/2000/svg">
  <rect width="32" height="32" rx="7" fill="#FFFFFF"/>
  <path transform="translate(-6.305, -17.203) scale(1.3066)"
    d="M16.591 34.0515C15.055 34.0515 13.6256 33.7208 12.303 33.0595C10.9803 32.3982 9.91363 31.4595 9.10296 30.2435C8.2923 29.0275 7.88696 27.6088 7.88696 25.9875C7.88696 24.8782 8.11096 23.8542 8.55896 22.9155C9.0283 21.9555 9.61496 21.0595 10.319 20.2275C11.0443 19.3955 11.7696 18.6168 12.495 17.8915C12.879 17.5075 13.3376 17.2302 13.871 17.0595C14.4043 16.8675 14.9483 16.7715 15.503 16.7715C16.8896 16.7715 18.223 16.9208 19.503 17.2195C20.783 17.5182 21.9243 18.0088 22.927 18.6915C23.951 19.3528 24.7616 20.2382 25.359 21.3475C25.9563 22.4355 26.255 23.7688 26.255 25.3475C26.255 26.6488 25.9776 27.8328 25.423 28.8995C24.8683 29.9662 24.1216 30.8835 23.183 31.6515C22.2656 32.4195 21.231 33.0168 20.079 33.4435C18.9483 33.8488 17.7856 34.0515 16.591 34.0515ZM15.951 30.4995C17.1243 30.4995 18.2336 30.2968 19.279 29.8915C20.3243 29.4648 21.1776 28.8355 21.839 28.0035C22.5216 27.1502 22.863 26.1048 22.863 24.8675C22.863 23.7795 22.543 22.8728 21.903 22.1475C21.2843 21.4222 20.495 20.8888 19.535 20.5475C18.575 20.1848 17.5936 20.0035 16.591 20.0035C16.079 20.0035 15.663 20.0782 15.343 20.2275C15.023 20.3768 14.735 20.5795 14.479 20.8355C14.223 21.0915 13.9243 21.3902 13.583 21.7315C12.9856 22.3502 12.4523 23.0328 11.983 23.7795C11.5136 24.5048 11.279 25.3368 11.279 26.2755C11.279 27.7688 11.727 28.8462 12.623 29.5075C13.519 30.1688 14.6283 30.4995 15.951 30.4995Z"
    fill="#6C43F5"/>
</svg>
