<svg width="72" height="40" viewBox="0 0 72 40" fill="none" xmlns="http://www.w3.org/2000/svg">
<path d="M52.1303 34.0514C51.1489 34.0514 50.2316 33.8274 49.3783 33.3794C48.5249 32.9314 47.8103 32.3341 47.2343 31.5874C46.6583 30.8194 46.2849 29.9554 46.1143 28.9954V27.3634C46.1143 26.1688 46.3276 24.9634 46.7543 23.7474C47.1809 22.5314 47.7889 21.4114 48.5783 20.3874C49.3676 19.3421 50.3063 18.5101 51.3943 17.8914C52.4823 17.2514 53.6769 16.9314 54.9783 16.9314C55.5116 16.9314 55.9703 17.0274 56.3543 17.2194C56.7596 17.4114 57.1223 17.6141 57.4423 17.8274C57.7836 18.0194 58.1143 18.1368 58.4343 18.1794C58.6049 17.3048 58.8396 16.7288 59.1383 16.4514C59.4369 16.1528 59.8423 16.0034 60.3543 16.0034C60.9729 16.0034 61.3889 16.2061 61.6023 16.6114C61.8369 16.9954 61.9543 17.4861 61.9543 18.0834C61.9543 19.2568 61.9223 20.4088 61.8583 21.5394C61.8156 22.6701 61.7943 23.8328 61.7943 25.0274C61.7943 25.9661 61.8476 26.9368 61.9543 27.9394C62.0609 28.9421 62.1143 29.9128 62.1143 30.8514V31.5234C62.1143 31.9928 62.0183 32.4301 61.8263 32.8354C61.6556 33.2194 61.2609 33.4114 60.6423 33.4114C60.0663 33.4114 59.6503 33.2408 59.3943 32.8994C59.1596 32.5368 58.9996 32.1101 58.9143 31.6194C58.8503 31.1074 58.7863 30.6488 58.7223 30.2434L58.5943 30.1154C57.8689 30.8408 57.2183 31.5021 56.6423 32.0994C56.0876 32.6968 55.4689 33.1768 54.7863 33.5394C54.1036 33.8808 53.2183 34.0514 52.1303 34.0514ZM51.8103 30.8194C52.5569 30.8194 53.2609 30.5954 53.9223 30.1474C54.6049 29.6781 55.2129 29.0808 55.7463 28.3554C56.2796 27.6088 56.6956 26.8301 56.9943 26.0194C57.2929 25.2088 57.4423 24.4514 57.4423 23.7474C57.4423 23.2141 57.3676 22.6808 57.2183 22.1474C57.0689 21.5928 56.8129 21.1234 56.4503 20.7394C56.1089 20.3554 55.6183 20.1634 54.9783 20.1634C54.2743 20.1634 53.5809 20.4088 52.8983 20.8994C52.2369 21.3901 51.6396 22.0194 51.1063 22.7874C50.5729 23.5341 50.1463 24.3234 49.8263 25.1554C49.5063 25.9661 49.3463 26.7021 49.3463 27.3634C49.3463 27.8968 49.4209 28.4301 49.5703 28.9634C49.7409 29.4968 50.0076 29.9448 50.3703 30.3074C50.7329 30.6488 51.2129 30.8194 51.8103 30.8194Z" fill="#1D1838"/>
<path d="M38.2923 35.2605C37.9083 35.2605 37.6203 35.0685 37.4283 34.6845C37.2363 34.3219 37.1403 33.9592 37.1403 33.5965C37.1403 32.9139 37.2896 32.2632 37.5883 31.6445C37.8869 31.0472 38.1536 30.4392 38.3883 29.8205C38.4949 29.5432 38.6229 29.1805 38.7723 28.7325C38.9429 28.3059 39.1029 27.8685 39.2523 27.4205C39.4229 26.9725 39.5616 26.5885 39.6683 26.2685C39.7749 25.9485 39.8283 25.7672 39.8283 25.7245V25.6285C38.6549 25.5432 37.6736 25.2339 36.8843 24.7005C36.0949 24.1672 35.4656 23.4952 34.9963 22.6845C34.5269 21.8739 34.1749 20.9885 33.9403 20.0285C33.7056 19.0472 33.5456 18.0552 33.4603 17.0525C33.3963 16.0499 33.3643 15.1112 33.3643 14.2365C33.3643 13.9592 33.3749 13.5965 33.3963 13.1485C33.4176 12.6792 33.4709 12.2099 33.5563 11.7405C33.6629 11.2712 33.8229 10.8765 34.0363 10.5565C34.2709 10.2365 34.5909 10.0765 34.9963 10.0765C35.7856 10.0765 36.2976 10.3645 36.5323 10.9405C36.7883 11.5165 36.9163 12.1459 36.9163 12.8285C36.9163 13.2979 36.8843 13.7352 36.8203 14.1405C36.7776 14.5459 36.7563 14.9939 36.7563 15.4845V15.8045C36.7563 15.9539 36.7883 16.2739 36.8523 16.7645C36.9163 17.2552 36.9803 17.7565 37.0443 18.2685C37.1296 18.7805 37.1936 19.1645 37.2363 19.4205C37.3429 20.1245 37.5563 20.7432 37.8763 21.2765C38.1963 21.7885 38.6443 22.0445 39.2203 22.0445C39.9029 22.0445 40.5003 21.7779 41.0123 21.2445C41.5456 20.7112 42.0149 20.0179 42.4203 19.1645C42.8469 18.3112 43.2523 17.4152 43.6363 16.4765C44.0203 15.5165 44.4043 14.6099 44.7883 13.7565C45.1723 12.9032 45.5883 12.2099 46.0363 11.6765C46.5056 11.1432 47.0283 10.8765 47.6043 10.8765C48.5643 10.8765 49.0443 11.4099 49.0443 12.4765C49.0443 13.2019 48.9269 13.8952 48.6923 14.5565C48.4789 15.2179 48.2016 15.8579 47.8603 16.4765C47.5403 17.0952 47.1989 17.7032 46.8363 18.3005C46.4736 18.8979 46.1536 19.5059 45.8763 20.1245C45.0229 21.9379 44.2336 23.8045 43.5083 25.7245C42.8043 27.6232 42.1216 29.5325 41.4603 31.4525C41.2896 31.9432 41.0763 32.4872 40.8203 33.0845C40.5643 33.6819 40.2336 34.1939 39.8283 34.6205C39.4443 35.0472 38.9323 35.2605 38.2923 35.2605Z" fill="#1D1838"/>
<path d="M28.8575 27.6657C28.3671 26.7591 28.1142 25.6472 28.0364 24.5884C27.9583 23.5244 27.8769 22.3107 27.7922 20.9473C27.7055 19.5627 27.6245 18.124 27.5491 16.6312C27.4737 15.1384 27.4245 13.6967 27.4016 12.3061C27.3998 10.9136 27.4246 9.68992 27.4759 8.63522C27.5352 7.66549 27.7291 6.87598 28.0578 6.26672C28.4077 5.65546 28.7845 5.33096 29.188 5.2932C29.5491 5.25942 29.884 5.51735 30.1925 6.067C30.501 6.61665 30.6851 7.55291 30.7445 8.87579C30.5695 11.3562 30.4927 13.7417 30.5142 16.0324C30.5357 18.323 30.6597 20.679 30.8862 23.1004C30.9604 23.8933 31.3416 25.7021 32.2618 26.7041C32.8483 27.3427 33.8028 27.5286 34.5533 27.3195C35.2419 27.1277 35.9544 26.811 36.4429 27.0713C37.2152 27.4828 37.7397 28.2222 36.7114 29.3523C36.01 30.1232 34.4011 30.636 32.9676 30.5824C31.1853 30.5158 29.6805 29.1874 28.8575 27.6657Z" fill="#1D1838"/>
<path d="M16.591 34.0515C15.055 34.0515 13.6256 33.7208 12.303 33.0595C10.9803 32.3982 9.91363 31.4595 9.10296 30.2435C8.2923 29.0275 7.88696 27.6088 7.88696 25.9875C7.88696 24.8782 8.11096 23.8542 8.55896 22.9155C9.0283 21.9555 9.61496 21.0595 10.319 20.2275C11.0443 19.3955 11.7696 18.6168 12.495 17.8915C12.879 17.5075 13.3376 17.2302 13.871 17.0595C14.4043 16.8675 14.9483 16.7715 15.503 16.7715C16.8896 16.7715 18.223 16.9208 19.503 17.2195C20.783 17.5182 21.9243 18.0088 22.927 18.6915C23.951 19.3528 24.7616 20.2382 25.359 21.3475C25.9563 22.4355 26.255 23.7688 26.255 25.3475C26.255 26.6488 25.9776 27.8328 25.423 28.8995C24.8683 29.9662 24.1216 30.8835 23.183 31.6515C22.2656 32.4195 21.231 33.0168 20.079 33.4435C18.9483 33.8488 17.7856 34.0515 16.591 34.0515ZM15.951 30.4995C17.1243 30.4995 18.2336 30.2968 19.279 29.8915C20.3243 29.4648 21.1776 28.8355 21.839 28.0035C22.5216 27.1502 22.863 26.1048 22.863 24.8675C22.863 23.7795 22.543 22.8728 21.903 22.1475C21.2843 21.4222 20.495 20.8888 19.535 20.5475C18.575 20.1848 17.5936 20.0035 16.591 20.0035C16.079 20.0035 15.663 20.0782 15.343 20.2275C15.023 20.3768 14.735 20.5795 14.479 20.8355C14.223 21.0915 13.9243 21.3902 13.583 21.7315C12.9856 22.3502 12.4523 23.0328 11.983 23.7795C11.5136 24.5048 11.279 25.3368 11.279 26.2755C11.279 27.7688 11.727 28.8462 12.623 29.5075C13.519 30.1688 14.6283 30.4995 15.951 30.4995Z" fill="#1D1838"/>
</svg>
