<svg width="12" height="12" viewBox="0 0 12 12" fill="none" xmlns="http://www.w3.org/2000/svg">
<path d="M6.5 9.99995C5.49651 9.99995 3.71382 11.8314 2.88502 11.3111C-0.000105381 9.49995 2.88491 9.29053 2.88491 7.49995C2.88491 6.63623 0.14634 4.91852 0.439023 4.26667C0.794424 2.68347 2.86547 4.143 3 4C3.25087 3.73333 3 0.311111 3.90941 0.2C5.68641 -0.404422 6.13763 3.17781 6.5 3.17781C7.40592 3.17781 6.75261 0.103704 7.58885 0.311111C8.42509 0.518519 9.17073 0.859259 9.82578 1.33333C10.4948 1.79259 9.10965 3.72958 9.49989 4.49995C9.89014 5.2555 12 4.85926 12 5.95556C12 6.85926 10.8623 7.2592 10.4999 7.99995C10.1375 8.74069 10.6063 9.8 9.99303 10.3333C7.75626 12.3239 7.72581 9.99995 6.5 9.99995Z" fill="#6C43F5"/>
</svg>
