<svg width="12" height="12" viewBox="0 0 12 12" fill="none" xmlns="http://www.w3.org/2000/svg">
<path d="M4.55047 0.698679C6.49447 -0.134337 9.58845 0.723721 9.86981 3.11274C10.1509 5.50208 9.85902 7.72807 7.84442 8.60395C7.45652 8.7738 8.44684 10.2835 7.84442 11.1596C7.45533 11.7254 5.45575 11.7968 5.45575 11.1596C5.31611 10.4627 5.45575 9.37917 5.45575 9.00434C5.45409 8.53639 2.59569 8.84475 2.11493 6.46723C1.73048 4.56592 2.85129 1.42687 4.55047 0.698679ZM6.88641 2.25044C6.61518 2.30039 6.43463 2.56119 6.48407 2.83247C6.64453 3.70664 6.44706 4.12794 6.20379 4.38423C5.91455 4.68885 5.48999 4.85181 4.96454 5.07075C4.78762 5.14455 4.60378 5.27821 4.51141 5.50434C4.42163 5.72442 4.45724 5.9379 4.51239 6.09126C4.61555 6.37761 4.85498 6.64936 5.07879 6.86665C5.55158 7.32556 6.23471 7.80278 6.71161 8.10005C6.94592 8.24603 7.25499 8.17415 7.40106 7.93989C7.54705 7.70555 7.47522 7.39649 7.2409 7.25044C6.78809 6.96817 6.17329 6.53543 5.77508 6.14887C5.67699 6.05363 5.60533 5.97279 5.55438 5.90864C5.98219 5.73268 6.52839 5.49509 6.92938 5.0727C7.44393 4.53056 7.67147 3.75941 7.46844 2.65278C7.41855 2.38142 7.15779 2.20089 6.88641 2.25044Z" fill="#6C43F5"/>
</svg>
