<svg width="12" height="12" viewBox="0 0 12 12" fill="none" xmlns="http://www.w3.org/2000/svg">
<path d="M1.13672 0.987187C1.54338 1.1023 2.8428 1.50361 3.39747 2.07801C4.16897 2.87699 5.05852 3.77431 5.9336 4.6698C7.08678 3.96357 7.70494 3.60572 7.88282 3.50867C7.97561 3.02616 8.27243 1.92707 8.71778 1.39246C9.16322 0.857928 10.4627 2.1725 11.0566 2.89637C10.7865 3.41195 9.94059 4.38919 8.71778 4.17664C8.50564 4.6508 8.0575 5.54228 7.54493 6.34754C9.10431 8.01514 10.2777 9.44667 10.0625 9.92469C9.95185 10.1701 9.91195 10.4129 8.91212 10.7616C8.70025 10.835 7.77961 10.0691 6.51856 8.80945L3.71583 5.80555C3.03585 5.03289 2.33611 4.2088 1.64942 3.36121C1.12179 2.70993 1.03102 1.47934 1.01563 1.08094C1.01327 1.01587 1.07402 0.96951 1.13672 0.987187ZM5.19727 8.8573C3.7093 10.0859 1.80373 11.3333 1.53516 10.413C1.91348 9.59154 2.64367 8.21454 3.48438 7.02137L5.19727 8.8573Z" fill="#6C43F5"/>
</svg>
